<svg width="304" height="260" viewBox="0 0 304 260" fill="none" xmlns="http://www.w3.org/2000/svg">
<path d="M105.299 238.1C92.6991 237.8 79.9991 237.7 67.3991 237.5C63.7991 237.4 60.1991 237.3 56.5991 237.4C55.8991 237.4 55.3991 238 55.4991 238.7C55.4991 239.4 56.0991 239.8 56.7991 239.8C59.9991 240 63.1991 240 66.3991 240C69.4991 240 72.6991 240.1 75.7991 240.1C82.0991 240.2 88.3991 240.3 94.6991 240.4C98.2991 240.5 101.899 240.5 105.499 240.5C107.099 240.6 106.899 238.1 105.299 238.1Z" fill="#242424"/>
<path d="M101.8 129.8C101.8 129.9 101.8 129.9 101.8 129.8C101.9 129.9 101.9 129.9 101.9 129.9L102 130C102.1 130.1 102.1 130.2 102.2 130.3C102.3 130.5 102.5 130.6 102.6 130.8C102.8 130.9 102.9 131.1 103.1 131.2C103.2 131.2 103.3 131.3 103.4 131.3C103.5 131.3 103.7 131.3 103.8 131.3C103.9 131.3 104 131.3 104 131.2C104.1 131.2 104.2 131.1 104.3 131C104.4 130.9 104.5 130.7 104.5 130.5C104.6 130.2 104.5 130 104.4 129.7V129.6C104.3 129.5 104.3 129.4 104.2 129.3L104.1 129.2L104 129.1L103.9 129C103.7 128.8 103.5 128.7 103.3 128.5C103.3 128.5 103.2 128.5 103.2 128.4C103.1 128.3 103 128.2 102.9 128.2C102.8 128.1 102.7 128.1 102.5 128.1C102.4 128.1 102.3 128.1 102.3 128.1C102.2 128.1 102.1 128.2 102 128.3C101.9 128.3 101.9 128.4 101.8 128.5C101.7 128.6 101.7 128.7 101.6 128.8C101.6 129 101.6 129.3 101.7 129.5C101.7 129.7 101.8 129.8 101.8 129.8Z" fill="#242424"/>
<path d="M100.4 125.8C100.6 125.4 100.5 124.9 100.2 124.6C99.9001 124.3 99.3001 124.2 99.0001 124.5C98.7001 124.7 98.5001 125 98.3001 125.3C98.1001 125.5 97.9001 125.7 97.7001 126C97.5001 126.2 97.3001 126.4 97.2001 126.6C97.0001 126.9 96.7001 127.2 96.6001 127.5C96.4001 127.9 96.5001 128.4 96.8001 128.6C97.1001 128.9 97.6001 128.9 97.9001 128.7C98.4001 128.3 98.8001 127.8 99.2001 127.3C99.4001 127.1 99.6001 126.9 99.7001 126.7C99.9001 126.4 100.2 126.1 100.4 125.8Z" fill="#242424"/>
<path d="M94.3992 145.5C94.0992 145.3 93.6992 145.3 93.2992 145.3C92.1992 145.3 91.0992 145.9 90.3992 146.8C90.2992 147 90.1992 147.2 90.1992 147.5C90.1992 147.7 90.2992 148 90.4992 148.1C90.6992 148.2 90.8992 148.4 91.1992 148.3C91.3992 148.3 91.5992 148.2 91.7992 148L91.8992 147.9C91.9992 147.8 92.0992 147.8 92.1992 147.7C92.0992 147.7 92.0992 147.8 91.9992 147.8C92.0992 147.8 92.1992 147.7 92.2992 147.7C92.5992 147.6 92.7992 147.5 93.0992 147.4C93.2992 147.4 93.4992 147.3 93.6992 147.3C93.9992 147.3 94.3992 147.3 94.6992 147.1C95.1992 146.7 95.0992 145.8 94.3992 145.5Z" fill="#242424"/>
<path d="M94.6992 96.6998C93.9992 97.2998 93.6992 98.0998 93.3992 98.8998C92.9992 99.6998 92.6992 100.5 92.2992 101.2C91.8992 101.9 91.5992 102.7 91.1992 103.4C91.0992 103.6 90.9992 103.9 90.8992 104.1C90.7992 103.6 90.5992 103.2 90.3992 102.7C89.9992 101.6 89.6992 100.6 89.3992 99.4998C89.0992 98.3998 88.6992 97.3998 88.3992 96.2998C88.0992 95.1998 87.7992 93.8998 87.2992 92.8998C87.0992 92.3998 86.5992 92.0998 86.0992 92.1998C85.5992 92.2998 85.1992 92.7998 85.1992 93.2998C85.3992 94.4998 85.6992 95.6998 86.0992 96.7998C86.3992 97.9998 86.7992 99.0998 87.0992 100.3C87.3992 101.4 87.7992 102.4 88.0992 103.5C88.4992 104.6 88.6992 105.8 89.2992 106.8C89.8992 107.8 91.0992 107.9 91.7992 107C92.0992 106.6 92.2992 106.1 92.4992 105.7C92.7992 105.2 92.9992 104.6 93.2992 104.1C93.7992 103 94.2992 101.9 94.7992 100.8C95.0992 100.3 95.2992 99.6998 95.5992 99.1998C95.8992 98.5998 96.1992 98.0998 96.1992 97.4998C96.1992 96.7998 95.2992 96.2998 94.6992 96.6998Z" fill="#242424"/>
<path d="M168.3 114.1C168.1 112.2 167.2 110.4 166.5 108.7C165.8 106.9 165.1 105.1 164.5 103.4C163.4 100.5 162.5 97.4 160.5 95C158.5 92.4 155.6 91.3 152.4 91.1C148.8 90.9 145.2 91.2 141.6 91.3C137.3 91.4 133.1 91.5 128.8 91.7C128.1 91.7 127.6 92.4 127.6 93C127.7 96.9 128.3 100.7 129.1 104.5C130 108.3 131.2 111.9 133 115.4C133.5 116.4 135.1 115.6 134.7 114.6C133.3 111.1 132.1 107.6 131.3 104C130.6 100.8 130.2 97.5 130.1 94.2C136.8 94.1 143.5 93.8 150.2 93.7C153 93.7 155.9 93.9 158 96.1C159.8 98.1 160.7 101 161.6 103.5C162.3 105.4 163 107.3 163.7 109.1C164.1 110 164.4 111 164.8 111.9C165.2 112.9 165.5 113.9 166.1 114.8C166.8 115.7 168.4 115.3 168.3 114.1Z" fill="#242424"/>
<path d="M129.699 60.8998C122.399 51.0998 110.099 47.2998 98.2992 47.6998C92.2992 47.8998 86.0992 49.1998 81.0992 52.6998C76.6992 55.7998 73.4992 60.2998 71.8992 65.3998C68.5992 75.6998 73.1992 87.0998 82.2992 92.7998C83.3992 93.4998 84.4992 93.9998 85.5992 94.4998C87.2992 95.1998 88.4992 92.6998 86.8992 91.9998C78.1992 88.3998 72.3992 78.8998 73.8992 69.4998C74.5992 64.7998 76.8992 60.3998 80.2992 56.9998C84.0992 53.2998 89.1992 51.4998 94.3992 50.7998C105.199 49.3998 116.999 51.6998 124.899 59.4998C128.399 62.9998 130.999 67.4998 131.799 72.4998C132.599 77.5998 131.499 82.9998 128.399 87.1998C125.399 91.1998 120.999 93.8998 116.299 95.7998C111.399 97.7998 105.799 98.9998 100.499 97.6998C99.1992 97.3998 97.9992 96.9998 96.8992 96.3998C95.4992 95.6998 94.3992 97.7998 95.7992 98.5998C101.099 101.6 107.399 101.3 113.099 99.7998C118.399 98.2998 123.599 95.7998 127.699 91.9998C131.999 87.9998 134.499 82.6998 134.799 76.8998C134.899 71.1998 132.999 65.4998 129.699 60.8998Z" fill="#242424"/>
<path d="M105.901 71.8998C104.201 74.3998 101.201 77.3998 102.201 80.7998C102.301 81.1998 102.201 81.5998 102.001 81.8998C101.901 82.5998 101.501 83.1998 100.801 83.4998C100.301 83.6998 99.7009 83.7998 99.3009 83.3998C97.5009 81.3998 97.1009 78.6998 97.7009 76.0998C98.4009 73.5998 99.9009 71.4998 101.201 69.2998C101.701 68.4998 102.701 67.1998 102.201 66.0998C101.701 65.0998 100.401 64.7998 99.4009 64.7998C98.2009 64.7998 96.8009 64.9998 95.9009 65.7998C94.9009 66.5998 95.1009 67.5998 95.5009 68.5998C95.9009 69.5998 96.1009 70.6998 95.6009 71.7998C95.2009 72.5998 94.4009 72.9998 93.6009 72.8998C93.3009 72.8998 93.0009 72.8998 92.7009 72.5998C90.2009 70.4998 89.9009 66.5998 91.5009 63.8998C93.0009 61.1998 96.1009 59.6998 99.1009 59.4998C102.101 59.2998 105.701 60.0998 107.301 62.8998C109.101 65.6998 107.701 69.1998 105.901 71.8998Z" fill="#FEBB08"/>
<path d="M105.502 88.2996C105.402 88.7996 105.202 89.2996 104.802 89.7996C104.502 90.1996 104.002 90.4996 103.502 90.6996C102.802 90.8996 102.202 90.7996 101.502 90.4996C101.002 90.2996 100.502 89.7996 100.202 89.3996C100.002 89.1996 99.9016 88.8996 99.8016 88.5996C99.7016 88.2996 99.7016 88.1996 99.8016 87.8996V87.7996C99.8016 87.5996 99.9016 87.2996 100.102 87.1996C100.202 86.6996 100.402 86.1996 100.802 85.8996C100.902 85.7996 101.102 85.5996 101.202 85.4996C101.402 85.3996 101.502 85.2996 101.702 85.2996C102.002 85.1996 102.302 85.0996 102.502 85.0996C103.002 85.0996 103.602 85.1996 104.002 85.3996C104.202 85.4996 104.502 85.6996 104.602 85.8996C104.902 86.1996 105.002 86.3996 105.202 86.7996C105.602 87.1996 105.602 87.7996 105.502 88.2996Z" fill="#FEBB08"/>
<path d="M128.3 240.4C128.2 240.4 128.1 240.4 127.9 240.4C127.6 240.4 127.2 240.4 126.9 240.4C126.2 240.4 125.5 240.5 124.8 240.5C122.7 240.6 120.6 240.6 118.5 240.6C116.3 240.6 114.2 240.6 112 240.5C110.2 240.4 108.3 240.4 106.5 240.2C106.7 239.9 106.8 239.6 106.7 239.2C106.6 238.7 106.5 238.3 106.3 237.8C105.3 233.8 104.2 229.8 103.1 225.7C103.7 225.8 104.2 225.8 104.8 225.9C105.8 226 106.8 226.1 107.7 226.2C108.7 226.3 109.8 226.4 110.8 226.5C111.7 226.6 112.6 226.8 113.5 226.5C113.6 226.5 113.7 226.5 113.7 226.4C114.6 226.1 115.2 225.4 115.8 224.6C121.7 226.7 126.6 231.7 128.6 237.6C128.7 238 128.9 238.5 129 238.9C129 239.6 128.8 240.1 128.3 240.4Z" fill="#242424"/>
<path d="M115.7 224.7C115.2 225.5 114.5 226.2 113.6 226.5C113.5 226.5 113.5 226.5 113.4 226.4C112.8 226.2 112.4 225.7 112.5 225C112.6 224.4 113.3 224 113.9 224.1C114.5 224.3 115.1 224.5 115.7 224.7Z" fill="#242424"/>
<path d="M128.3 240.4C127.9 240.7 127.3 240.7 126.9 240.5C127.2 240.5 127.6 240.5 127.9 240.5C128.1 240.4 128.2 240.4 128.3 240.4Z" fill="#242424"/>
<path d="M106.401 240.1C106.101 240.1 105.801 240 105.601 240C104.601 239.8 104.501 238.7 105.001 238.1C105.201 237.9 105.401 237.8 105.801 237.7C106.001 237.7 106.101 237.7 106.301 237.7C106.401 238.2 106.501 238.6 106.701 239.1C106.701 239.5 106.601 239.8 106.401 240.1Z" fill="#242424"/>
<path d="M162.199 193.7C162.399 193.8 162.599 193.8 162.699 193.7C162.499 193.7 162.399 193.7 162.199 193.7ZM162.199 193.7C162.399 193.8 162.599 193.8 162.699 193.7C162.499 193.7 162.399 193.7 162.199 193.7Z" fill="#242424"/>
<path d="M200.9 169.1C201.4 171.4 202.7 173.4 204.3 174.9C203.4 174.9 202.5 174.9 201.5 174.8C188.6 174.6 175.7 174.3 162.9 174C149.1 173.7 135.2 173.4 121.4 172.7C120.7 172.7 120.4 172.2 120.3 171.6C120.1 171.4 120 171.1 120 170.8C120.1 166.6 120.2 162.5 120.3 158.3C120.3 156.6 120.4 155 120.4 153.3C121 151.7 121.7 150.2 122.3 148.6C122.5 148 122.8 147.4 123 146.8C123.6 145.3 124.3 143.7 124.9 142.2C125 142 125 141.8 125.1 141.7C125.8 140 126.5 138.3 127.2 136.6C127.3 136.4 127.4 136.1 127.5 135.9C127.2 145.5 126.9 156 126.7 165.2C132.3 165.4 137.8 165.7 143.4 165.9C155.4 166.4 167.4 166.9 179.4 167.2C185.7 167.4 192.1 167.5 198.4 167.6C199.1 167.6 199.8 167.6 200.5 167.6C200.7 168.4 200.8 168.7 200.9 169.1Z" fill="#242424"/>
<path d="M213.5 157.3C213.7 157.8 213.4 158.3 213 158.6C213 158.5 213 158.4 213 158.3C213 157.5 213 156.8 213.1 156C213.2 156.4 213.3 156.9 213.5 157.3Z" fill="#242424"/>
<path d="M220.701 119.2C220.701 120.3 220.701 121.3 220.601 122.4C220.501 124.5 220.501 126.6 220.401 128.6C220.301 132.2 220.201 135.9 220.101 139.7C220.101 140.5 220.001 141.3 220.001 142.1C216.801 143.9 214.101 147 213.101 150.6C213.101 148.8 213.201 147.1 213.201 145.3C213.201 143.2 213.301 141.2 213.301 139.1C213.301 135.9 213.401 132.7 213.501 129.5C213.501 127.9 213.601 126.3 213.601 124.7C213.601 123.4 213.601 122 213.801 120.6C207.701 120.5 200.401 120.5 194.601 120.3C183.301 120.1 172.101 119.9 160.801 119.6C149.801 119.4 138.901 119.3 127.901 118.7C127.901 121.3 127.801 123.9 127.801 126.5C127.401 126.5 126.901 126.5 126.501 126.7C126.101 126.8 125.701 127.1 125.401 127.3C124.801 127.8 124.301 128.5 123.801 129.2C123.701 129.3 123.601 129.3 123.601 129.4C123.601 129.5 123.601 129.5 123.601 129.6C123.501 129.7 123.501 129.8 123.401 129.8L123.301 129.9C123.601 128.7 123.901 127.4 123.901 126.1C123.901 125.5 123.801 125 123.701 124.4C123.601 124.2 123.601 124.1 123.501 123.9C123.401 123.6 123.201 123.3 123.001 123.1C122.501 122.5 121.901 122.1 121.301 122C121.401 119.6 121.501 117.2 121.701 114.8C121.301 114.2 121.601 113.2 122.501 113.2C129.501 113 136.601 113 143.701 113C156.301 113 168.901 113.2 181.401 113.6C187.701 113.8 193.901 114 200.201 114.2C203.301 114.3 206.501 114.5 209.601 114.6C212.701 114.7 215.901 115 219.001 115C219.301 115 219.601 115.1 219.801 115.3C220.101 115.4 220.401 115.6 220.501 115.9C220.901 117.1 220.801 118.1 220.701 119.2Z" fill="#242424"/>
<path d="M237.501 32.6999C237.401 32.2999 237.101 31.8999 236.501 31.8999C233.001 31.5999 229.401 31.6999 225.801 31.6999C222.201 31.5999 218.701 31.5999 215.101 31.4999C208.001 31.3999 200.901 31.1999 193.701 31.0999C191.701 31.0999 189.701 31.0999 187.601 30.9999C185.601 30.9999 183.501 30.7999 181.501 31.0999C181.101 31.0999 180.801 31.3999 180.701 31.5999C180.401 31.7999 180.101 31.9999 180.101 32.3999C179.801 35.6999 179.501 38.9999 179.201 42.2999C179.101 43.5999 179.001 44.8999 178.801 46.1999C179.001 45.7999 179.201 45.3999 179.401 44.9999C179.701 44.4999 180.001 43.7999 180.401 43.3999C180.901 42.8999 180.901 43.5999 180.901 43.9999C180.701 45.5999 180.301 47.0999 180.001 48.5999C179.701 50.1999 179.401 51.8999 179.101 53.4999C178.901 54.4999 180.301 54.8999 180.801 54.0999C181.101 53.9999 181.401 53.7999 181.401 53.3999C181.401 50.8999 182.501 48.4999 184.401 47.0999C183.901 48.9999 183.401 50.7999 182.901 52.6999C182.601 53.8999 182.201 55.1999 181.901 56.3999C181.601 57.6999 181.301 59.0999 180.801 60.2999C180.501 60.8999 180.901 61.3999 181.401 61.4999C182.501 62.6999 184.001 63.6999 185.301 64.6999C186.101 65.2999 186.901 65.9999 187.601 66.5999C188.101 66.5999 188.701 66.5999 189.201 66.5999C189.801 66.5999 190.401 66.5999 190.901 66.6999C193.901 66.7999 196.801 66.8999 199.801 66.9999C206.901 67.2999 214.001 67.8999 221.101 68.4999C225.101 68.8999 229.001 68.0999 233.001 68.5999C233.301 68.5999 233.601 68.5999 233.901 68.3999C234.401 68.4999 235.001 68.1999 235.101 67.3999C235.801 61.3999 236.501 56.4999 237.001 50.4999C237.201 47.4999 237.401 44.4999 237.601 41.4999C237.701 39.9999 237.801 38.5999 237.801 37.0999C237.801 36.3999 237.901 35.5999 237.901 34.8999C237.901 34.1999 238.001 33.2999 237.501 32.6999ZM231.801 38.1999C231.701 39.4999 231.701 40.7999 231.601 42.1999C231.501 44.8999 231.401 47.5999 231.301 50.2999C231.201 54.3999 230.901 58.4999 230.901 62.5999C230.101 62.5999 229.201 62.5999 228.401 62.4999C226.701 62.4999 225.001 62.3999 223.301 62.3999C219.901 62.2999 216.401 62.1999 213.001 62.0999C206.201 61.8999 199.401 61.6999 192.601 61.5999C190.701 61.4999 188.801 61.4999 186.901 61.4999C186.201 61.4999 185.401 61.4999 184.701 61.3999C184.301 61.3999 184.001 61.3999 183.601 61.3999C183.601 61.0999 183.601 60.8999 183.701 60.5999C183.701 60.1999 183.701 59.7999 183.801 59.3999C183.901 58.1999 184.001 56.9999 184.101 55.6999C184.101 55.5999 184.101 55.4999 184.101 55.3999C184.301 53.0999 184.501 50.6999 184.701 48.3999C184.801 47.1999 184.901 45.8999 185.001 44.6999C185.101 43.4999 185.201 42.2999 185.301 41.0999C185.401 39.2999 185.701 37.4999 185.701 35.5999C188.301 35.7999 191.001 35.7999 193.601 35.7999L203.801 35.9999C210.601 36.0999 217.401 36.2999 224.201 36.3999C226.101 36.3999 227.901 36.4999 229.801 36.4999C230.601 36.4999 231.401 36.5999 232.101 36.5999C231.801 37.1999 231.801 37.6999 231.801 38.1999Z" fill="#242424"/>
<path d="M169.499 46.6999C169.499 46.5999 169.399 46.4999 169.399 46.3999C169.399 46.2999 169.299 46.2999 169.299 46.1999C169.199 46.0999 169.199 45.9999 168.999 45.9999C168.899 45.8999 168.799 45.8999 168.699 45.8999C168.599 45.8999 168.499 45.8999 168.499 45.8999C168.399 45.8999 168.299 45.8999 168.199 45.9999C168.099 45.9999 168.099 46.0999 167.999 46.0999C167.899 46.1999 167.799 46.2999 167.799 46.3999C167.799 46.4999 167.699 46.5999 167.699 46.5999C167.699 46.7999 167.699 46.8999 167.699 47.0999C167.699 47.1999 167.799 47.2999 167.799 47.2999C167.799 47.3999 167.799 47.3999 167.899 47.3999C167.899 47.3999 167.899 47.4999 167.999 47.4999C168.099 47.5999 168.099 47.6999 168.199 47.6999C168.399 47.8999 168.499 47.8999 168.699 47.9999H168.899C168.999 47.9999 169.099 47.9999 169.199 47.8999C169.299 47.8999 169.299 47.7999 169.399 47.7999C169.499 47.6999 169.599 47.5999 169.599 47.4999C169.699 47.3999 169.699 47.2999 169.699 47.1999C169.499 46.9999 169.499 46.8999 169.499 46.6999Z" fill="#242424"/>
<path d="M216.6 72.4999C215.7 71.3999 214.299 70.5999 212.999 70.0999C206.899 67.7999 200.699 70.7999 196.499 75.2999C193.899 78.0999 191.7 81.3999 190.1 84.8999C189.7 85.6999 190.899 86.6999 191.499 85.8999C193.199 83.5999 194.599 81.1999 196.299 78.8999C197.899 76.7999 199.799 74.9999 201.999 73.5999C204.099 72.2999 206.399 71.4999 208.899 71.5999C210.099 71.5999 211.299 71.8999 212.399 72.2999C213.299 72.6999 214.499 73.2999 214.999 74.1999C215.199 74.5999 215.299 74.9999 214.699 75.0999C213.999 75.1999 213.099 74.8999 212.399 74.7999C210.599 74.4999 208.9 74.2999 207.1 73.9999C205.8 73.7999 205.399 75.7999 206.699 75.9999C208.599 76.2999 210.5 76.4999 212.299 76.7999C213.699 76.9999 215.599 77.4999 216.699 76.2999C217.799 75.0999 217.4 73.4999 216.6 72.4999Z" fill="#242424"/>
<path d="M210.9 75.9997C210.2 75.1997 209.4 74.4997 208.4 74.0997C206.3 73.2997 203.7 73.5997 202 75.2997C201.3 75.9997 202.3 76.9997 203.1 76.5997C203.8 76.1997 204.5 75.9997 205.3 75.8997C206.1 75.7997 206.9 75.8997 207.5 76.1997C208.2 76.4997 208.7 76.8997 209.1 77.3997C209.2 77.5997 209.4 77.6997 209.5 77.8997C209.6 77.9997 209.6 78.0997 209.7 78.1997C209.7 78.1997 209.8 78.3997 209.8 78.2997C210 78.6997 210.1 79.1997 210.3 79.5997C210.8 80.2997 212 80.1997 212.2 79.1997C212.4 78.0997 211.5 76.7997 210.9 75.9997Z" fill="#242424"/>
<path d="M211.201 77.9998C208.601 76.8998 205.601 76.9998 203.101 78.0998C202.701 78.2998 202.401 78.6998 202.601 79.1998C202.701 79.5998 203.201 79.8998 203.701 79.6998C204.801 79.2998 205.901 79.0998 207.101 79.1998C207.601 79.1998 208.201 79.2998 208.701 79.3998C209.301 79.4998 209.901 79.6998 210.301 79.8998C210.801 80.0998 211.201 79.9998 211.501 79.6998C211.701 79.4998 211.801 79.1998 211.801 78.8998C211.701 78.4998 211.501 78.1998 211.201 77.9998Z" fill="#242424"/>
<path d="M211.299 80.2C210.499 80.1 209.799 80 208.999 80.1C207.499 80.1 205.899 80.4 204.499 81C203.399 81.4 203.899 83 205.099 82.7C206.499 82.3 207.999 82.1 209.499 82.2C210.199 82.2 210.899 82.3 211.499 82.4C211.899 82.5 212.199 82.5 212.599 82.5C213.099 82.5 213.499 82 213.499 81.5C213.299 80.5 212.099 80.3 211.299 80.2Z" fill="#242424"/>
<path d="M213.501 80.0998C213.401 79.8998 213.201 79.6998 213.001 79.4998C212.901 79.3998 212.701 79.2998 212.601 79.0998C212.501 78.9998 212.301 78.8998 212.201 78.7998C212.101 78.6998 211.901 78.5998 211.801 78.3998C211.501 78.0998 211.101 78.1998 210.801 78.3998C210.501 78.5998 210.401 79.0998 210.701 79.3998C210.801 79.4998 210.901 79.6998 211.001 79.7998C211.101 79.9998 211.201 80.0998 211.301 80.2998C211.401 80.4998 211.501 80.5998 211.601 80.6998C211.701 80.8998 211.901 81.0998 212.101 81.2998C212.301 81.4998 212.501 81.5998 212.801 81.4998C213.001 81.4998 213.201 81.3998 213.301 81.2998C213.501 81.1998 213.601 80.9998 213.601 80.7998C213.601 80.4998 213.601 80.2998 213.501 80.0998Z" fill="#242424"/>
<path d="M205.4 85C204.9 84.7 204.1 84.9 203.9 85.5C202.8 88.4 201.8 91.4 199.9 93.9C198.3 96 195.9 97.9 193.1 98.2C190 98.5 187.1 96.8 184.5 95.3C181.6 93.7 178.7 92 175.9 90.3C172.7 88.3 169.5 86.1 166.3 84.2C165.4 83.7 164.5 85 165.3 85.6C168 87.9 171.2 89.9 174.2 91.8C177.3 93.7 180.4 95.6 183.5 97.4C186.4 99 189.5 100.8 192.9 100.7C196 100.5 198.8 98.8 200.8 96.6C203.3 93.8 204.6 90.2 205.9 86.7C206.1 86 206 85.3 205.4 85Z" fill="#242424"/>
<path d="M210.2 83.5001C209.9 83.1001 209.2 82.9001 208.8 83.2001C208.5 83.4001 208.1 83.7001 207.8 83.9001C207.6 84.0001 207.5 84.1001 207.3 84.2001C207.2 84.2001 207.1 84.3001 207 84.3001C207.2 84.2001 207 84.3001 206.9 84.3001C206.2 84.6001 205.4 84.9001 204.7 85.2001C204.3 85.3001 204.1 85.8001 204.1 86.2001C204.2 86.6001 204.6 86.9001 205 86.9001C205.9 86.8001 206.7 86.6001 207.6 86.3001C208.4 85.9001 209.2 85.5001 209.9 85.0001C210.3 84.6001 210.6 84.0001 210.2 83.5001Z" fill="#242424"/>
<path d="M212.899 81.2998C212.699 80.7998 211.999 80.6998 211.599 80.8998C211.099 81.0998 210.899 81.5998 211.099 82.0998C211.099 82.2998 211.199 82.3998 211.199 82.5998V82.6998C211.199 82.7998 211.199 82.8998 211.199 82.8998C211.199 82.9998 211.199 83.0998 211.199 83.1998V83.0998C211.199 83.1998 211.199 83.1998 211.199 83.2998C211.199 83.4998 211.099 83.5998 211.099 83.7998C211.099 83.8998 210.999 83.9998 210.999 84.0998C210.899 84.1998 210.899 84.4998 210.699 84.5998C210.699 84.5998 210.699 84.4998 210.799 84.4998L210.699 84.5998C210.599 84.6998 210.599 84.6998 210.499 84.7998C210.399 84.8998 210.399 84.8998 210.299 84.9998C210.299 84.9998 210.299 84.9998 210.199 84.9998C210.099 85.0998 209.899 85.1998 209.799 85.2998C210.099 85.1998 209.699 85.2998 209.699 85.2998C209.599 85.2998 209.599 85.2998 209.499 85.3998C209.399 85.3998 209.099 85.4998 209.399 85.3998C209.299 85.3998 209.199 85.3998 209.199 85.3998C209.099 85.3998 208.799 85.4998 208.699 85.3998C208.699 85.3998 208.599 85.3998 208.499 85.3998H208.599C208.499 85.3998 208.399 85.3998 208.299 85.3998C208.199 85.3998 208.099 85.3998 208.099 85.3998H207.999C207.899 85.3998 207.899 85.3998 207.999 85.3998C207.899 85.3998 207.599 85.1998 207.499 85.1998C207.499 85.1998 207.399 85.1998 207.399 85.0998C207.399 85.0998 207.299 84.9998 207.199 84.9998C206.799 84.6998 206.199 84.6998 205.899 85.0998C205.599 85.4998 205.599 85.9998 205.999 86.3998C207.099 87.4998 208.799 87.8998 210.399 87.3998C211.899 86.8998 212.999 85.5998 213.299 84.0998C213.399 83.1998 213.299 82.1998 212.899 81.2998Z" fill="#242424"/>
<path d="M179.2 41.6999C178.9 40.3999 177.6 39.5999 176.3 39.8999C174.7 40.2999 174.1 41.8999 173.9 43.3999C173.8 43.9999 174.7 44.4999 175 43.7999C175.4 42.9999 175.8 41.5999 176.8 41.4999C177.6 41.3999 177.6 42.5999 177.6 43.0999C177.5 44.2999 177.2 45.5999 177 46.7999C176.8 48.1999 176.4 49.5999 176.5 50.9999C176.6 51.6999 177.6 51.9999 177.9 51.2999C178.3 50.3999 178.4 49.5999 178.5 48.5999C178.6 47.6999 178.8 46.7999 178.9 45.8999C179.2 44.4999 179.5 42.9999 179.2 41.6999Z" fill="#242424"/>
<path d="M182.8 44.6999C182.7 45.2999 182.6 45.7999 182.5 46.3999C182.4 46.8999 182.3 47.2999 182.2 47.6999C181.8 49.7999 181.4 51.7999 180.9 53.8999C180.9 53.9999 180.8 54.0999 180.8 54.1999C180.4 54.9999 178.9 54.5999 179.1 53.5999C179.4 51.9999 179.7 50.2999 180 48.6999C180.3 47.1999 180.7 45.5999 180.9 44.0999C181 43.6999 180.9 43.0999 180.4 43.4999C180 43.8999 179.7 44.5999 179.4 45.0999C179.2 45.4999 179 45.8999 178.8 46.2999C178.4 47.1999 178.1 48.0999 177.9 49.0999C177.7 49.9999 176.5 49.6999 176.6 48.7999C176.9 46.9999 177.4 45.1999 178.4 43.5999C178.6 43.1999 178.9 42.6999 179.2 42.3999C179.4 42.0999 179.7 41.8999 180 41.7999C180.8 41.4999 181.6 41.6999 182.1 42.2999C182.8 42.9999 182.9 43.7999 182.8 44.6999Z" fill="#242424"/>
<path d="M186.801 45.5C186.101 48.1 185.301 50.6 184.601 53.2L183.901 55.5L183.501 57C183.201 58 182.801 59 182.601 60C182.501 60.3 182.501 60.5 182.501 60.8C182.401 61.4 181.901 61.6 181.401 61.5C180.901 61.4 180.501 60.9 180.801 60.3C181.401 59.1 181.601 57.7 181.901 56.4C182.201 55.2 182.601 53.9 182.901 52.7C183.401 50.8 183.901 49 184.401 47.1C182.501 48.6 181.301 51 181.401 53.4C181.401 53.8 181.201 54.1 180.801 54.1C180.401 54.2 179.901 54 179.901 53.4C179.401 50.7 180.601 48.1 182.501 46.2C183.201 45.5 184.001 45 184.801 44.6C185.101 44.5 185.301 44.4 185.601 44.3C186.201 44.2 187.001 44.8 186.801 45.5Z" fill="#242424"/>
<path d="M196 77.7999C195.9 78.7999 194.2 78.8999 194 77.8999C193.8 76.9999 193.8 76.0999 193.5 75.2999C193.3 74.4999 193 73.6999 192.6 72.8999C191.8 71.2999 190.8 69.8999 189.6 68.5999C189 67.8999 188.3 67.2999 187.6 66.5999C186.8 65.8999 186.1 65.2999 185.3 64.6999C184 63.6999 182.6 62.6999 181.4 61.4999C181.3 61.2999 181.1 61.1999 181 60.9999C180.4 60.2999 181.4 59.2999 182.1 59.6999C182.3 59.7999 182.5 59.8999 182.6 59.9999C182.9 60.1999 183.2 60.3999 183.5 60.5999C183.9 60.7999 184.2 61.0999 184.6 61.3999C185.5 62.0999 186.3 62.7999 187.2 63.4999C188.5 64.4999 189.8 65.5999 190.9 66.7999C191.2 67.0999 191.4 67.2999 191.7 67.5999C193 68.9999 194.1 70.4999 194.9 72.2999C195.6 73.8999 196.2 75.8999 196 77.7999Z" fill="#242424"/>
<path d="M182.799 77.3998C180.599 75.5998 178.599 73.6998 176.599 71.5998C175.899 70.7998 175.199 69.9998 174.499 69.1998C173.599 68.0998 172.799 66.8998 171.999 65.6998C171.399 64.6998 172.799 63.8998 173.499 64.7998C174.999 66.4998 176.399 68.2998 177.999 69.8998C178.799 70.7998 179.599 71.5998 180.399 72.3998C181.599 73.5998 182.899 74.6998 184.199 75.7998C185.299 76.6998 183.899 78.2998 182.799 77.3998Z" fill="#242424"/>
<path d="M166.301 60.6C167.801 61.5 169.601 61.1 170.901 60.1C172.101 59.1 172.601 57.3 172.001 55.8C171.301 54.2 169.701 53.1 167.901 53.5C167.001 53.7 166.201 54.3 165.701 55.1C165.501 55.5 165.301 55.9 165.301 56.3C165.301 56.5 165.301 56.7 165.301 56.8C165.001 57.3 164.801 57.9 164.901 58.5C165.001 59.4 165.501 60.1 166.301 60.6ZM166.701 57.8C166.801 57.7 166.901 57.6 166.901 57.5C166.901 57.5 166.901 57.4 167.001 57.4C167.101 57.3 167.101 57.2 167.101 57.1C167.101 57 167.101 56.9 167.201 56.8C167.201 56.8 167.201 56.7 167.301 56.6C167.401 56.5 167.401 56.3 167.501 56.2C167.501 56.1 167.601 56.1 167.601 56.1C167.701 56 167.801 55.9 167.801 55.8C167.901 55.8 167.901 55.7 168.001 55.7L168.101 55.6C168.101 55.6 168.101 55.6 168.201 55.6C168.301 55.6 168.401 55.5 168.501 55.5C168.601 55.5 168.701 55.5 168.701 55.5C168.801 55.5 168.801 55.5 168.901 55.5C169.001 55.5 169.001 55.5 169.101 55.5C169.301 55.6 169.401 55.6 169.501 55.7C169.601 55.7 169.601 55.8 169.601 55.8C169.701 55.9 169.801 56 169.901 56.1C170.001 56.2 170.001 56.2 170.101 56.3C170.201 56.4 170.201 56.5 170.201 56.6V56.7C170.201 56.8 170.201 56.8 170.301 56.9C170.301 56.9 170.301 56.9 170.301 57V57.1C170.301 57.2 170.301 57.2 170.301 57.3V57.4C170.301 57.5 170.301 57.6 170.201 57.7C170.201 57.8 170.201 57.8 170.201 57.9C170.101 58 170.101 58.1 170.001 58.2C170.001 58.3 169.901 58.3 169.901 58.4C169.901 58.4 169.901 58.4 169.901 58.5C169.801 58.6 169.701 58.7 169.701 58.8C169.701 58.8 169.601 58.9 169.501 58.9C169.401 59 169.301 59.1 169.201 59.1C169.201 59.1 169.101 59.1 169.101 59.2C169.301 59.1 169.101 59.2 169.001 59.2C168.901 59.2 168.701 59.3 168.601 59.3C168.501 59.3 168.501 59.3 168.401 59.3C168.301 59.3 168.201 59.3 168.101 59.3H168.001C167.901 59.3 167.801 59.3 167.701 59.2H167.601C167.601 59.2 167.501 59.2 167.401 59.1C167.301 59.1 167.301 59 167.201 59C167.201 59 167.101 59 167.101 58.9L167.001 58.8C166.901 58.7 166.901 58.6 166.801 58.6C166.801 58.5 166.701 58.4 166.701 58.3C166.701 58.2 166.701 58.1 166.701 58V57.9V57.8Z" fill="#242424"/>
<path d="M166.799 50.7999C167.199 51.1999 167.699 51.2999 168.199 51.0999C168.699 50.8999 168.799 50.1999 168.599 49.7999C168.499 49.3999 168.099 49.0999 167.899 48.6999C167.699 48.3999 167.599 48.0999 167.499 47.7999C167.299 47.1999 167.199 46.4999 167.299 45.8999C167.399 45.1999 167.699 44.4999 168.099 43.9999C168.299 43.6999 168.599 43.3999 168.899 43.0999C169.199 42.8999 169.599 42.5999 169.899 42.2999C170.399 41.6999 169.999 40.8999 169.199 40.8999C168.799 40.8999 168.299 41.0999 167.999 41.2999C167.699 41.4999 167.299 41.6999 166.999 41.9999C166.399 42.4999 165.999 43.1999 165.699 43.7999C164.999 45.2999 164.899 46.9999 165.499 48.4999C165.799 49.3999 166.199 50.1999 166.799 50.7999Z" fill="#242424"/>
<path d="M159.501 51.4C159.601 51.5 159.601 51.6 159.701 51.6C159.801 51.7 159.801 51.7 159.901 51.8C160.001 51.9 160.101 52 160.201 52C160.301 52 160.401 52.1 160.501 52.1C160.601 52.1 160.801 52.1 160.901 52.1C161.101 52.1 161.101 52 161.201 51.9L161.301 51.8C161.401 51.7 161.501 51.6 161.501 51.6C161.601 51.5 161.601 51.4 161.601 51.2C161.601 51.1 161.601 51 161.601 50.9C161.601 50.8 161.501 50.7 161.501 50.5C161.401 50.4 161.401 50.3 161.301 50.2C161.201 50.1 161.201 50 161.101 50C161.001 49.9 160.901 49.8 160.801 49.7C160.701 49.6 160.601 49.6 160.401 49.5C160.301 49.5 160.101 49.5 160.001 49.5C159.901 49.5 159.801 49.6 159.701 49.6C159.601 49.7 159.601 49.7 159.501 49.8C159.401 49.9 159.301 50.1 159.301 50.3C159.301 50.4 159.301 50.5 159.301 50.6C159.301 50.8 159.401 50.9 159.501 51.1C159.401 51.2 159.501 51.3 159.501 51.4Z" fill="#242424"/>
<path d="M193 87.3C188.7 83.7 184.2 80.2 179.5 77.1C177.9 76.1 176.3 75 174.7 74.1C174.7 73.5 174.4 73 174.3 72.5C174 71.7 173.7 71 173.3 70.3C172.7 69.2 171.8 68.1 170.9 67.2C172.4 66.5 173.8 65.5 174.8 64.2C176.8 61.7 177.5 58.7 177.6 55.6C177.8 50 176.6 43.1 171.8 39.6C167.2 36.3 161 36.4 156.3 39.4C155.6 39.9 154.9 40.4 154.2 40.9C154 37.9 152 35.2 149.2 34C145.9 32.6 141.9 33.3 139.1 35.6C136.3 37.9 134.7 41.9 135 45.6C133.7 48.8 134.1 52.5 136.4 55.2C138.8 57.9 142.6 58.9 145.9 57.4C145.8 57.6 145.7 57.9 145.6 58.1C144.8 59.6 143.7 60.7 142.5 61.9C141.4 63.1 140.4 64.4 140.1 66C139.9 66.8 139.9 67.6 140.2 68.3C138.2 68.9 136.7 70.7 136.2 72.7C135.5 75.2 136.6 77.9 138.3 79.7C142.3 83.9 149.3 83.2 154.2 81C155.6 80.4 157 79.6 158.2 78.7C159.1 78 160 77.3 160.8 76.4C161.1 76.4 161.4 76.2 161.6 75.9C162.4 74.3 164 73.4 165.8 73.3C168.1 73.2 170.2 74.3 172.1 75.4C176.5 77.9 180.7 80.7 184.7 83.7C187 85.4 189.3 87.2 191.5 89C192.6 89.8 194.1 88.2 193 87.3ZM161.9 39.7C164.1 39.3 166.4 39.4 168.6 40.4C173.4 42.5 174.9 47.8 175.3 52.7C175.5 55.7 175.4 58.9 173.9 61.5C172.8 63.4 171 65 168.9 65.4C166.7 63.8 164.1 62.5 161.6 61.6C161.6 61.5 161.7 61.5 161.7 61.4C162.3 60.3 160.8 59.3 159.9 60.2C159 61.1 158 61.8 156.7 61.8C155.5 61.8 154.3 61.1 153.7 60C153.1 59 152.9 57.7 153.6 56.7C154.2 55.9 155.4 55.8 155.9 56.7C156.5 57.9 158.3 56.9 158 55.7C157.2 52.7 157.3 49.6 158.2 46.6C158.8 44 160.2 41.8 161.9 39.7ZM144.8 55.5C143.1 56.1 141.4 55.9 139.9 55C137.9 53.9 136.8 51.9 136.5 49.8C137.4 51.3 138.8 52.6 140.8 53.3C142.6 54 144.6 54 146.4 53.3C146.8 53.2 147.2 53 147.6 52.7C147.6 52.8 147.5 53 147.5 53.1C147.5 53.2 147.4 53.3 147.4 53.4C147.2 53.6 147 53.9 146.8 54.1C146.2 54.8 145.5 55.2 144.8 55.5Z" fill="#242424"/>
<path d="M159.6 99.9999C154 106.7 144.6 107.5 136.6 105.5C129.5 103.7 121.2 99.5999 119.5 91.6999C118 84.8999 121.5 77.1999 127.8 73.9999C131.2 72.2999 135 71.7999 138.8 72.3999C142.1 72.8999 145.6 74.3999 148.1 76.6999C150.6 74.1999 153.2 71.6999 155.7 69.2999C156.3 68.6999 157.6 68.9999 157.5 69.8999C157.4 71.6999 157.4 73.4999 157.3 75.2999C157.3 76.1999 157.2 76.9999 157.2 77.8999C157.2 78.3999 157.2 78.7999 157.1 79.2999C157.1 79.6999 157.1 79.9999 157 80.2999C160.2 81.9999 162.2 85.2999 162.9 88.7999C163.5 92.9 162.2 96.8999 159.6 99.9999Z" fill="#FEBB08"/>
<path d="M152.199 90.0998C152.399 89.1998 152.199 88.0998 151.299 87.6998C150.499 87.1998 149.499 87.4998 148.699 87.8998C146.999 88.6998 145.599 90.2998 145.299 92.1998C145.199 92.5998 145.199 93.0998 145.199 93.4998C144.799 93.5998 144.399 93.6998 143.999 93.7998C142.399 94.0998 140.199 93.7998 139.699 92.0998C139.899 91.9998 140.099 91.8998 140.299 91.7998C141.899 90.7998 143.499 89.5998 144.899 88.1998C145.499 87.5998 145.899 86.8998 145.799 85.9998C145.699 85.1998 145.099 84.5998 144.299 84.3998C142.599 83.8998 141.099 85.3998 139.899 86.4998C138.699 87.6998 137.699 89.1998 137.599 90.9998C135.899 91.7998 133.999 92.2998 132.299 91.3998C131.399 90.8998 130.999 90.2998 130.799 89.5998C132.499 88.6998 134.099 87.4998 135.499 86.0998C136.099 85.4998 136.599 84.7998 136.699 83.9998C136.799 83.1998 136.399 82.3998 135.599 81.8998C133.999 80.9998 132.499 81.8998 131.499 83.0998C130.099 84.5998 128.799 86.6998 128.699 88.6998C127.899 89.0998 126.999 89.3998 126.199 89.6998C125.499 89.8998 125.699 91.1998 126.499 91.0998C127.299 90.9998 128.199 90.7998 128.999 90.4998C129.199 91.1998 129.599 91.8998 130.299 92.4998C132.499 94.5998 135.499 94.1998 138.099 93.1998C138.999 95.4998 141.899 96.4998 144.499 96.0998C144.999 95.9998 145.499 95.8998 145.999 95.6998C146.299 96.2998 146.799 96.7998 147.299 97.1998C148.799 98.1998 150.999 98.0998 152.199 96.5998C152.999 95.5998 151.699 94.4998 150.799 95.2998C150.199 95.7998 149.099 95.7998 148.399 95.2998C148.199 95.1998 148.099 94.9998 147.899 94.7998C148.299 94.5998 148.699 94.3998 148.999 94.0998C150.199 92.9998 151.799 91.5998 152.199 90.0998ZM131.999 85.5998C132.499 84.9998 133.499 83.1998 134.499 83.2998C135.199 83.3998 134.599 83.9998 134.299 84.2998C133.899 84.7998 133.399 85.1998 132.999 85.6998C132.399 86.1998 131.799 86.6998 131.099 87.1998C131.299 86.5998 131.599 85.9998 131.999 85.5998ZM143.299 86.1998C143.799 85.9998 143.799 86.1998 143.499 86.5998C143.099 87.0998 142.599 87.4998 142.099 87.8998C141.499 88.4998 140.799 88.9998 139.999 89.3998C140.199 89.0998 140.399 88.6998 140.599 88.4998C141.399 87.6998 142.399 86.4998 143.299 86.1998ZM148.999 90.0998C149.099 89.9998 149.899 89.3998 150.199 89.4998C150.199 89.4998 150.199 89.5998 150.099 89.6998C149.999 89.8998 149.799 90.0998 149.699 90.2998C148.999 91.0998 148.299 91.7998 147.399 92.2998C147.599 91.3998 148.299 90.5998 148.999 90.0998Z" fill="#242424"/>
<path d="M250.3 92.0999C248.8 91.7999 247.2 91.9999 245.7 91.8999C244.2 91.8999 242.6 91.7999 241.1 91.7999C238 91.6999 234.8 91.6999 231.7 91.5999C225.5 91.4999 219.2 91.3999 213 91.2999C211.3 91.2999 209.6 91.2999 207.9 91.1999C206.1 91.1999 204.3 90.9999 202.6 91.3999C201.6 91.5999 201.9 92.9999 202.7 93.1999C204.2 93.5999 205.8 93.4999 207.3 93.4999C208.8 93.4999 210.4 93.5999 211.9 93.5999C215 93.6999 218.1 93.6999 221.2 93.7999C227.4 93.8999 233.6 94.0999 239.7 94.1999C241.4 94.1999 243.1 94.1999 244.8 94.1999C245.7 94.1999 246.6 94.1999 247.5 94.1999C248.4 94.1999 249.3 94.2999 250.2 94.1999C251.3 93.9999 251.6 92.2999 250.3 92.0999Z" fill="#242424"/>
<path d="M228.1 83.4998C225.4 83.2998 222.7 83.1998 220 83.1998C217.4 83.1998 214.6 83.0998 212 83.7998C211.1 83.9998 211.2 85.4998 212.1 85.5998C214.7 85.7998 217.3 85.4998 219.8 85.4998C222 85.4998 224.2 85.5998 226.4 85.6998C226.2 86.2998 226.1 86.9998 225.9 87.5998C225.6 88.5998 225.2 89.6998 225.2 90.7998C225.2 91.8998 226.8 92.0998 227.2 91.1998C227.7 90.2998 227.8 89.0998 228.1 87.9998C228.4 86.8998 228.6 85.8998 228.9 84.7998C229.1 84.2998 228.7 83.5998 228.1 83.4998Z" fill="#242424"/>
<path d="M251.3 77.4998C250.6 76.6998 249.6 76.4998 248.6 76.3998C247.4 76.2998 246.1 76.1998 244.9 75.9998C242.3 75.7998 239.7 75.4998 237.1 75.2998C236.6 75.2998 236.1 75.3998 235.9 75.8998C233.6 80.3998 231.8 85.4998 231.4 90.6998C231.3 91.9998 233.2 92.4998 233.4 91.0998C234.3 86.3998 235.5 81.8998 237.6 77.5998C239.6 77.7998 241.6 77.9998 243.5 78.1998C244.6 78.2998 245.7 78.3998 246.8 78.4998C247.4 78.5998 247.9 78.5998 248.5 78.6998C248.8 78.6998 249.3 78.6998 249.5 78.8998C249.9 79.2998 249.3 80.5998 249.2 81.0998C248.9 82.1998 248.6 83.2998 248.3 84.4998C247.7 86.6998 247.2 88.9998 246.6 91.1998C246.3 92.4998 248.2 92.8998 248.6 91.5998C249.3 89.0998 250 86.4998 250.7 83.9998C251 82.7998 251.4 81.5998 251.6 80.3998C251.9 79.2998 251.9 78.2998 251.3 77.4998Z" fill="#242424"/>
<path d="M254.601 79.8999C253.101 79.2999 251.101 79.2999 250.001 80.6999C249.501 81.2999 250.001 82.2999 250.801 81.9999C251.301 81.7999 251.601 81.6999 252.101 81.6999C252.201 81.6999 252.301 81.6999 252.501 81.6999C252.601 81.6999 252.701 81.6999 252.701 81.6999C253.001 81.6999 253.201 81.7999 253.501 81.8999C253.601 81.8999 253.701 81.9999 253.701 81.9999C253.801 81.9999 253.901 82.0999 254.001 82.0999C254.101 82.1999 254.201 82.1999 254.301 82.2999L254.501 82.4999C254.601 82.5999 254.701 82.6999 254.801 82.7999C254.801 82.8999 254.901 82.8999 254.901 82.8999C255.001 82.9999 255.001 83.0999 255.101 83.1999C255.101 83.1999 255.101 83.2999 255.201 83.2999C255.201 83.2999 255.201 83.3999 255.301 83.4999C255.301 83.5999 255.401 83.7999 255.401 83.8999C255.401 83.9999 255.401 83.9999 255.401 84.0999C255.401 84.3999 255.501 84.6999 255.401 84.9999C255.401 84.9999 255.401 85.1999 255.401 85.2999C255.401 85.3999 255.401 85.5999 255.301 85.6999C255.301 85.7999 255.201 85.9999 255.201 86.0999C255.201 86.1999 255.101 86.2999 255.101 86.3999C255.001 86.4999 255.001 86.6999 254.901 86.7999C254.901 86.8999 254.701 87.0999 254.701 87.0999C254.601 87.1999 254.401 87.4999 254.201 87.6999C253.901 87.9999 253.301 88.3999 252.901 88.5999C252.201 88.8999 251.701 88.9999 251.101 88.9999C250.401 88.9999 249.801 88.8999 249.101 88.7999C248.601 88.6999 248.001 88.9999 247.901 89.4999C247.701 89.9999 247.901 90.5999 248.401 90.7999C249.901 91.3999 251.901 91.3999 253.401 90.8999C255.001 90.3999 256.301 89.2999 257.101 87.8999C258.601 84.7999 257.701 81.0999 254.601 79.8999Z" fill="#242424"/>
<path d="M253.1 84.3001C252.9 83.7001 252.4 83.3001 251.8 83.1001C251.3 82.9001 250.6 83.1001 250.2 83.6001C250 83.9001 250 84.2001 250.2 84.4001C250.4 84.6001 250.8 84.7001 251 84.5001C251.1 84.5001 251.1 84.5001 251.2 84.5001C251.3 84.6001 251.3 84.6001 251.3 84.6001C251.3 84.8001 251.3 84.8001 251.3 84.9001C251.3 84.9001 251.3 85.0001 251.2 85.0001C251.2 85.1001 251.1 85.1001 251 85.2001C250.9 85.3001 250.9 85.3001 250.8 85.3001C250.7 85.3001 250.6 85.4001 250.5 85.4001C250.2 85.4001 249.9 85.4001 249.6 85.4001C249.4 85.4001 249.2 85.4001 249 85.4001C248.7 85.5001 248.4 85.8001 248.4 86.2001C248.4 86.6001 248.6 86.9001 248.9 87.0001C249.1 87.1001 249.3 87.1001 249.5 87.1001C249.7 87.1001 249.9 87.1001 250.1 87.1001C250.4 87.1001 250.7 87.1001 251.1 87.0001C251.7 86.9001 252.3 86.6001 252.6 86.1001C253 85.7001 253.3 85.0001 253.1 84.3001Z" fill="#242424"/>
<path d="M262.701 56.6998C261.901 53.9998 259.801 51.8998 257.101 50.9998C254.401 50.1998 251.301 50.6998 249.001 52.2998C247.101 53.6998 245.901 55.6998 245.301 57.7998C244.601 57.3998 243.801 57.2998 243.001 57.4998C240.901 57.8998 239.601 59.9998 239.301 61.9998C239.001 64.0998 239.201 66.4998 239.601 68.5998C239.901 70.2998 240.501 71.9998 241.801 73.1998C241.401 73.9998 240.801 74.7998 240.101 75.2998C239.101 76.0998 240.201 77.8998 241.201 76.9998C242.601 75.8998 243.501 74.5998 244.001 72.9998C244.101 72.6998 243.901 72.1998 243.701 71.9998C241.401 70.1998 241.401 66.9998 241.301 64.3998C241.301 62.8998 241.301 61.1998 242.401 60.0998C242.801 59.6998 243.401 59.3998 244.001 59.5998C244.601 59.7998 244.901 60.1998 244.901 60.7998C244.901 62.1998 247.001 61.9998 247.001 60.6998C247.001 56.1998 250.701 52.1998 255.301 52.8998C257.401 53.1998 259.201 54.3998 260.201 56.3998C261.101 58.1998 261.101 60.3998 260.001 62.0998C259.101 63.5998 257.501 64.4998 255.901 64.6998C255.201 64.4998 254.401 64.3998 253.701 64.6998C252.701 64.9998 252.801 66.4998 253.801 66.6998C254.401 66.7998 254.901 66.7998 255.501 66.7998C256.001 66.9998 256.401 67.3998 256.601 67.8998C257.101 68.7998 256.901 69.8998 256.301 70.6998C254.701 72.7998 251.501 72.6998 249.301 71.6998C248.601 71.3998 247.601 71.9998 248.001 72.7998C248.501 73.8998 248.401 75.1998 247.401 75.9998C246.401 76.7998 247.501 78.4998 248.501 77.6998C249.701 76.7998 250.401 75.2998 250.301 73.8998C251.701 74.1998 253.101 74.3998 254.601 73.9998C256.201 73.4998 257.601 72.3998 258.401 70.8998C259.201 69.3998 259.101 67.5998 258.101 66.2998C259.201 65.8998 260.201 65.1998 261.101 64.2998C263.001 62.2998 263.501 59.3998 262.701 56.6998Z" fill="#242424"/>
<path d="M216.101 48.2997C215.501 52.3997 211.401 55.1997 207.501 55.5997C203.701 55.9997 199.501 54.1997 197.701 50.6997C196.501 48.2997 196.501 45.3997 197.701 43.1997C198.301 41.1997 199.901 39.5997 201.801 38.7997C204.001 37.7997 206.501 37.8997 208.701 38.6997C212.701 39.8997 216.701 43.7997 216.101 48.2997Z" fill="#FEBB08"/>
<path d="M210.699 41.6C209.799 41.7 209.099 42.5 208.499 43.2C207.899 43.9 207.299 44.5 206.699 45.2C205.899 46.1 205.099 47 204.199 47.9C203.499 46.8 202.599 45.9 201.399 45.7C200.699 45.6 200.199 46.3 200.599 46.9C200.999 47.5 201.499 47.9 201.899 48.5C202.299 49 202.599 49.6 202.799 50.3C203.099 51.1 204.099 51.3 204.699 50.7C205.899 49.4 207.099 48.1 208.299 46.7C208.899 46.1 209.499 45.4 210.099 44.7C210.699 44 211.499 43.3 211.499 42.3C211.599 41.9 211.099 41.5 210.699 41.6Z" fill="#242424"/>
<path d="M172.699 89.0001C172.499 88.0001 171.199 87.9001 170.899 88.9001C170.599 89.8001 170.499 90.7001 170.299 91.5001C170.099 92.4001 169.799 93.2001 169.399 94.0001C168.699 95.7001 167.699 97.1001 166.499 98.5001C165.599 99.6001 167.099 100.9 168.099 100C169.499 98.6001 170.599 96.8001 171.399 95.0001C171.799 94.1001 172.099 93.1001 172.399 92.2001C172.699 91.2001 172.899 90.0001 172.699 89.0001Z" fill="#242424"/>
<path d="M167.1 98.8998C166.4 98.7998 165.8 98.7998 165.1 98.7998C164.5 98.7998 163.9 98.6998 163.3 98.7998C162.8 98.7998 162.4 99.1998 162.4 99.6998C162.4 100.2 162.7 100.6 163.2 100.7C163.8 100.8 164.4 100.9 165 100.9C165.7 101 166.3 101 167 101C167.5 101 168 100.5 168 99.9998C168 99.4998 167.6 98.9998 167.1 98.8998Z" fill="#242424"/>
<path d="M202.7 110.5C200.6 108.5 198 107.2 195.3 106.3C192.3 105.3 189.3 104.6 186.2 104.1C182.9 103.5 179.6 103 176.3 102.7C174.5 102.5 172.7 102.5 171 102.3C169.8 102.1 167.9 101.5 168.4 99.9C168.7 98.9 167.1 98.6 166.8 99.6C166.4 100.8 166.8 101.9 167.5 102.9C168.4 104.1 169.7 104.6 171.2 104.8C174.5 105.2 177.8 105.4 181.1 105.9C184.4 106.4 187.6 107 190.8 107.8C193.8 108.5 196.7 109.4 199.3 111.2C200.5 112 201.6 113 202.4 114.1C202.8 114.7 203.2 115.3 203.5 115.9C203.8 116.6 204 117.3 204.3 118C204.8 119.2 206.7 119 206.6 117.6C206.5 114.8 204.6 112.2 202.7 110.5Z" fill="#242424"/>
<path d="M250.801 92.8997C250.601 91.9997 249.201 91.6997 249.001 92.7997C248.901 93.5997 248.901 94.3997 248.901 95.1997C236.001 95.1997 223.101 95.0997 210.201 95.1997C206.401 95.1997 202.701 95.1997 198.901 95.2997C197.601 95.3997 197.801 97.1997 199.001 97.2997C205.601 97.5997 212.301 97.3997 218.901 97.3997C225.501 97.3997 232.101 97.3997 238.701 97.2997C242.501 97.2997 246.201 97.1997 250.001 97.1997C250.501 97.1997 250.901 96.6997 250.901 96.1997C250.901 95.0997 251.001 93.9997 250.801 92.8997Z" fill="#242424"/>
<path d="M185.9 82C185.4 81.8 184.8 82 184.6 82.5C184.2 83.5 183.9 84.5 183.3 85.4C182.8 86.3 182.2 87.1 181.5 87.8C180.1 89.3 178.4 90.5 176.6 91.4C176.1 91.6 175.8 92 176 92.6C176.2 93.1 176.7 93.3 177.2 93.2C179.5 92.5 181.5 91.1 183.1 89.4C184.7 87.7 186.1 85.5 186.6 83.3C186.8 82.7 186.4 82.1 185.9 82Z" fill="#242424"/>
<path d="M180.499 72.4996C179.899 72.3996 179.199 72.1996 178.599 72.0996C177.999 71.9996 177.299 71.7996 176.699 71.6996C175.099 71.3996 173.499 70.9996 171.999 70.4996C170.999 70.1996 171.299 68.7996 172.299 68.8996C173.099 68.9996 173.799 69.0996 174.599 69.2996C175.799 69.4996 176.899 69.7996 178.099 69.9996C178.799 70.7996 179.699 71.5996 180.499 72.4996Z" fill="#242424"/>
<path d="M224.399 217.5C223.099 217.9 222.499 217.9 221.099 217.9C219.799 217.9 218.599 217.9 217.299 218C214.699 218 212.099 218 209.399 217.8C204.199 217.6 198.899 217.1 193.699 216.3C192.999 216.2 192.699 215.5 192.699 214.8C193.199 208.4 194.399 201.4 196.199 194.9C196.399 194.1 196.599 193.3 196.899 192.6C197.399 190.8 197.999 189 198.599 187.3C198.799 186.8 199.299 186.7 199.799 186.8C200.299 186.9 200.699 187.4 200.599 188C200.499 188.2 200.499 188.4 200.399 188.6C199.999 189.9 199.599 191.3 199.199 192.7C198.999 193.5 198.799 194.2 198.599 195C196.999 201.3 195.899 207.9 195.299 214C199.999 214.6 204.799 215 209.599 215.2C212.199 215.3 214.699 215.4 217.299 215.4C218.599 215.4 219.799 215.4 221.099 215.3C221.699 215.3 222.099 215.2 222.499 215.2C222.999 215.2 223.499 215.1 224.199 215.3C224.499 215.4 224.799 215.6 224.899 215.9C225.299 216.4 225.099 217.2 224.399 217.5Z" fill="#242424"/>
<path d="M229.399 192.6C229.399 192.8 229.299 193 229.299 193.2C229.299 193.4 229.199 193.7 229.199 193.9C229.099 194.7 228.999 195.4 228.899 196.2V196.3C228.799 196.6 228.799 197 228.699 197.3C228.599 198 228.499 198.6 228.399 199.3C228.099 201.4 227.699 203.4 227.299 205.5C227.199 206.2 226.999 206.8 226.899 207.5C226.799 208.1 226.699 208.7 226.499 209.3C226.299 210.1 226.199 211 225.999 211.8C225.699 213.2 225.399 214.5 225.099 215.9C225.099 216.1 224.999 216.2 224.999 216.4C224.599 218 222.099 217.5 222.499 215.9C222.599 215.7 222.599 215.5 222.699 215.2C222.999 213.9 223.299 212.5 223.599 211.1C223.699 210.6 223.799 210.1 223.899 209.6C224.299 207.5 224.799 205.5 225.099 203.4C225.499 201 225.999 198.6 226.299 196.2C226.399 195.4 226.499 194.6 226.699 193.8C226.799 193.3 226.799 192.9 226.899 192.4C226.999 191.4 227.199 190.5 227.299 189.5C227.399 189 227.499 188.2 227.099 187.8C226.399 186.9 224.299 187.3 223.399 187.4C221.399 187.5 219.299 187.7 217.299 187.8C216.199 187.9 215.199 188 214.099 188C209.499 188.3 204.999 188.6 200.399 188.5H200.199C199.099 188.5 198.899 187.1 199.799 186.7C199.899 186.6 199.999 186.6 200.099 186.6C202.299 186.3 204.599 186.1 206.799 185.9C207.399 185.9 207.899 185.8 208.499 185.8C210.399 185.7 212.299 185.5 214.199 185.4C214.799 185.4 215.499 185.3 216.099 185.3C216.999 185.2 217.799 185.2 218.699 185.1C219.299 185.1 219.899 185 220.499 185C222.299 184.9 224.299 184.6 226.099 184.7C227.699 184.8 229.099 185.6 229.699 187.1C230.199 188.9 229.599 190.9 229.399 192.6Z" fill="#242424"/>
<path d="M239.2 205.5C237.8 207.9 235.6 209.6 233.1 210.6C231.7 211.2 230.2 211.5 228.8 211.6C227.9 211.7 226.9 211.8 225.9 211.7C225.2 211.7 224.4 211.6 223.8 211.3C223.7 211.2 223.6 211.2 223.5 211.1C223.6 210.6 223.7 210.1 223.8 209.6C223.8 209.6 223.9 209.6 223.9 209.5C224.7 209.2 225.5 209.2 226.3 209.2H226.4C227.1 209.2 227.9 209.1 228.6 209.1C230 209 231.3 208.7 232.5 208.1C236.2 206.5 238.9 202.6 237.6 198.5C237.4 197.8 237 197.1 236.5 196.5C235.8 195.7 234.9 195.1 233.8 194.8C232.1 194.4 230.1 194.7 228.8 195.9L228.7 196C228.6 196.1 228.6 196.1 228.5 196.1C228.2 196.2 228 196.2 227.7 196.1C227.2 195.9 226.9 195.2 227.4 194.6C227.7 194.3 227.9 194 228.2 193.7C228.5 193.5 228.8 193.2 229.1 193.1C230.8 192.1 232.9 192 234.8 192.6C235.9 192.9 236.8 193.5 237.6 194.2C238.4 194.9 239 195.8 239.4 196.7C240.9 199.5 240.8 202.8 239.2 205.5Z" fill="#242424"/>
<path d="M233.7 204.4C232.9 205.6 231.6 206.4 230.2 206.8C229.5 207 228.7 207.2 228 207.3C227.6 207.4 227.2 207.4 226.8 207.5C226.4 207.5 226 207.5 225.6 207.5C224.8 207.4 224.7 206 225.5 205.9C225.7 205.8 225.9 205.7 226.2 205.7C226.4 205.7 226.6 205.7 226.7 205.6C226.8 205.6 227 205.6 227.1 205.5C227.3 205.5 227.5 205.4 227.7 205.4C228.4 205.3 229 205.1 229.7 204.9C230.2 204.7 230.8 204.4 231.2 204.1C231.5 203.9 231.9 203.4 232.1 203.2C232.2 203 232.4 202.8 232.5 202.5C232.6 202.2 232.6 202.2 232.7 201.9C232.8 201.5 232.8 201 232.7 200.7C232.5 199.8 231.9 199.3 231.1 199.1C230.2 198.8 229.2 198.9 228.3 199.3C227.8 199.5 227.3 199.2 227.2 198.7C227 198.2 227.3 197.8 227.8 197.6C228.1 197.5 228.4 197.4 228.7 197.3C229.9 197 231.2 197 232.3 197.4C233.6 197.9 234.5 199 234.8 200.4C235 201.8 234.5 203.3 233.7 204.4Z" fill="#242424"/>
<path d="M249.499 163C249.399 166.4 247.799 169.6 245.099 171.7C242.499 173.8 238.999 174.9 235.699 175C232.299 175.1 228.899 174.2 225.799 172.8C224.999 175.8 222.199 178.2 219.099 178.3C219.699 180.6 219.499 183 218.699 185.2C218.399 186.1 217.899 187 217.399 187.8C216.299 187.9 215.299 188 214.199 188C214.999 187.2 215.699 186.3 216.199 185.3C217.399 182.8 217.699 179.9 216.499 177.3C216.199 176.5 216.999 175.7 217.799 175.9C220.599 176.5 223.899 174.2 223.899 171.2C223.899 170.4 224.699 169.8 225.499 170.2C228.799 171.8 232.499 172.9 236.199 172.7C241.699 172.4 247.399 168.7 247.399 162.7C247.399 160.1 246.299 157.7 243.999 156.5C241.899 155.4 239.399 155.3 237.399 156.6C236.299 157.3 235.299 155.9 235.999 155C237.899 152.5 237.799 149.2 236.599 146.4C235.499 143.8 233.299 141.8 230.599 140.9C227.499 140 224.099 140.4 221.199 141.7C220.899 141.8 220.599 142 220.299 142.2C217.099 144 214.399 147.1 213.399 150.7C212.899 152.4 212.799 154.3 213.299 156.1C213.399 156.5 213.599 157 213.699 157.4C213.899 157.9 213.599 158.4 213.199 158.7C212.899 158.9 212.499 158.9 212.099 158.8C210.099 157.8 207.699 157.8 205.599 158.7C201.999 160.3 200.399 164.3 200.799 168.1C200.799 168.5 200.899 168.9 200.999 169.2C201.499 171.5 202.799 173.5 204.399 175C205.899 176.4 207.699 177.5 209.599 178.2C210.199 178.4 210.199 179.2 209.899 179.6C208.599 181.3 208.099 183.5 208.699 185.5C208.699 185.6 208.699 185.7 208.699 185.8C208.599 186.6 207.399 187 207.099 186V185.9C206.399 183.7 206.699 181.3 207.899 179.3C205.499 178.3 203.399 176.8 201.699 174.8C199.999 172.8 198.999 170.4 198.699 167.8C198.399 165.2 198.899 162.6 200.299 160.3C202.499 156.8 206.899 154.9 210.899 155.7C210.199 152.3 211.099 148.7 212.999 145.9C213.099 145.7 213.299 145.4 213.499 145.2C215.199 142.8 217.699 140.8 220.399 139.6C224.399 137.8 228.999 137.5 232.999 139.4C238.099 141.8 240.899 148.2 239.199 153.5C241.399 153.1 243.699 153.6 245.599 154.8C248.099 156.6 249.599 159.7 249.499 163Z" fill="#242424"/>
<path d="M239.601 223.1C227.801 222.9 216.001 222.8 204.201 222.7C192.301 222.6 180.501 222.5 168.601 222.5C162.001 222.5 155.301 222.3 148.701 222.5C147.301 222.5 147.401 224.6 148.801 224.7C160.601 225.1 172.401 225 184.201 225.1C196.101 225.2 207.901 225.3 219.801 225.4C226.401 225.5 233.101 225.4 239.701 225.4C241.201 225.3 241.001 223.1 239.601 223.1Z" fill="#242424"/>
<path d="M258.9 196.7C258.7 197 258.6 197.3 258.4 197.6C257.9 198.5 257.3 199.3 256.7 200.2C256 201.4 255.2 202.5 254.5 203.7C253 206 251.6 208.2 250.1 210.5C248.6 212.8 247.2 215 245.7 217.3C244.2 219.6 242.8 222 241.1 224.2C240.4 225.2 238.8 224 239.3 223C240.6 220.6 242.2 218.3 243.6 216C245 213.7 246.5 211.5 248 209.2C249.5 206.9 250.9 204.7 252.3 202.4C253 201.2 253.8 200.1 254.5 198.9C254.8 198.5 255.1 198 255.3 197.6C255.7 196.9 256.2 196.1 256.7 195.5C256.8 195.4 256.9 195.3 257 195.3C257.4 195 257.9 195.1 258.2 195.4C258.9 195.5 259.2 196.2 258.9 196.7Z" fill="#242424"/>
<path d="M105.6 189.9C105.7 190.6 105.7 191.3 105.7 192C105.1 192 104.4 192 103.8 191.9C102.5 191.9 102.3 189.8 103.7 189.8C104.3 189.9 104.9 189.9 105.6 189.9Z" fill="#242424"/>
<path d="M155.6 191.2C154.9 191.9 154.3 192.7 153.7 193.4C147.2 193.2 140.6 193 134 192.8C133.5 192 133.1 191.3 132.6 190.5C139 190.7 145.5 190.9 151.9 191C153.1 191.1 154.4 191.1 155.6 191.2Z" fill="#242424"/>
<path d="M197 192.6C197.8 192.6 198.5 192.7 199.3 192.7C199.1 193.5 198.9 194.2 198.7 195C197.9 195 197.1 194.9 196.4 194.9C194.2 194.8 192 194.7 189.8 194.7C187.7 194.6 185.6 194.5 183.5 194.5C183.5 193.6 183.1 192.8 182.6 192.1C187.3 192.2 192.2 192.4 197 192.6Z" fill="#242424"/>
<path d="M258.901 196.7C258.701 197 258.601 197.3 258.401 197.6C257.401 197.5 256.501 197.5 255.501 197.5C250.201 197.2 244.901 197 239.501 196.8C238.501 196.7 237.501 196.7 236.601 196.7C235.901 195.9 235.001 195.3 233.901 195C232.201 194.6 230.201 194.9 228.901 196.1L228.801 196.2V196.3C228.701 196.3 228.701 196.3 228.601 196.3C228.301 196.3 228.101 196.3 227.801 196.3C227.301 196.3 226.801 196.2 226.301 196.2C226.401 195.4 226.501 194.6 226.701 193.8C227.301 193.8 227.801 193.8 228.401 193.9C228.701 193.9 229.001 193.9 229.201 193.9C232.101 194 234.901 194.1 237.701 194.3C237.801 194.3 237.801 194.3 237.901 194.3C244.301 194.6 250.801 194.9 257.201 195.2C257.601 195.2 258.001 195.2 258.401 195.3C258.901 195.5 259.201 196.2 258.901 196.7Z" fill="#242424"/>
<path d="M166.2 174.1C166.1 175.2 165.4 176.3 165 177.3C164.6 178.3 164.2 179.3 163.8 180.3C163 182.3 162.1 184.3 161.3 186.4C160.1 189.3 158.6 192.6 155.4 193.5C154.7 193.7 153.7 193.1 154 192.2C155 189.1 156 185.9 157.1 182.8C157.6 181.3 158.1 179.7 158.6 178.2C159.1 176.6 159.6 175 160.2 173.5C160.4 173 160.9 172.9 161.3 173C161.5 173 161.7 172.9 161.9 172.9C162.2 172.9 162.5 172.8 162.8 172.8C163.1 172.8 163.4 172.8 163.8 172.7C164.2 172.7 164.6 172.6 165 172.7C165.3 172.7 165.6 172.9 165.7 173.2C166 173.3 166.3 173.7 166.2 174.1Z" fill="#242424"/>
<path d="M142.9 210.4C143.2 211 142.7 211.8 142.1 212C141.4 212.2 140.8 211.8 140.5 211.2C140.3 210.8 140.2 210.5 140 210.1C140.9 210.1 141.8 210.1 142.7 210.1C142.8 210.2 142.9 210.3 142.9 210.4Z" fill="#242424"/>
<path d="M193.8 195.2C190.3 195.2 186.9 195.2 183.4 195.2C183.4 195 183.5 194.7 183.4 194.5C183.4 193.6 183 192.8 182.5 192.1C182.4 191.9 182.3 191.8 182.1 191.7C180.9 190.5 179.1 190.2 177.5 190.5C177.4 190.1 177.1 189.9 176.8 189.8C176.7 189.5 176.4 189.3 176.1 189.2C174.9 188.8 173.6 188.5 172.3 188.5C172.2 188.3 172.1 188.1 172 187.9C170.7 186.3 169 184.7 166.9 184.3C164.6 183.8 162.5 185 160.8 186.4C159 187.9 157.2 189.5 155.7 191.2C155 192 154.4 192.7 153.8 193.5C153.7 193.6 153.6 193.7 153.6 193.8C153.2 194.3 152.8 194.8 152.5 195.3C150.5 195.3 148.5 195.3 146.5 195.3C142.9 195.3 139.3 195.4 135.7 195.5C135.2 194.6 134.7 193.8 134.2 192.9C133.7 192.1 133.3 191.4 132.8 190.6C128.6 184.1 123.5 178.2 117 174.2C117.1 174.1 117.1 174 117.1 173.8C117.7 168.3 118.6 162.8 119.1 157.2C119.2 157.1 119.3 157 119.4 156.8C119.8 155.7 120.3 154.6 120.7 153.5C121.3 151.9 122 150.4 122.6 148.8C122.8 148.2 123.1 147.6 123.3 147C123.9 145.5 124.6 143.9 125.2 142.4C125.3 142.2 125.3 142 125.4 141.9C126.1 140.2 126.8 138.5 127.5 136.8C127.6 136.6 127.7 136.3 127.8 136.1C128.4 134.7 128.9 133.3 129.5 131.9C130 130.7 130.6 129.3 130.1 128.1C129.7 127.2 128.9 126.7 128 126.6C127.6 126.6 127.1 126.6 126.7 126.8C126.3 126.9 125.9 127.2 125.6 127.4C125 127.9 124.5 128.6 124 129.3C123.9 129.4 123.8 129.5 123.8 129.7C123.7 129.8 123.7 129.9 123.6 129.9L123.5 130C123.8 128.8 124.1 127.5 124.1 126.2C124.1 125.6 124 125.1 123.9 124.5C123.8 124.3 123.8 124.2 123.7 124C123.6 123.7 123.4 123.4 123.2 123.2C122.7 122.6 122.1 122.2 121.5 122.1C121 122 120.4 122 119.9 122.4C119.7 121.6 119.2 120.8 118.4 120.4C116.9 119.6 115.2 120.7 114.5 122C114.4 122.1 114.4 122.2 114.3 122.3C114.2 121.3 113.9 120.3 112.9 119.8C111.6 119 110.3 119.9 109.5 121C108.8 122.1 108.5 123.5 108.3 124.7C108.2 125.4 108.1 126.1 108.1 126.9C107.6 126.2 107 125.5 106.4 124.8C106.8 122.5 106 120 104.6 118.2C103 116.1 100.8 114.6 98.1999 113.9C92.2999 112.3 85.7999 114.6 80.4999 117.1C79.8999 117.4 79.3999 117.6 78.7999 117.9C74.4999 119.5 70.5999 122.2 67.6999 125.7C64.1999 129.9 62.2999 135 61.8999 140.4C61.6999 143.2 61.9999 146 62.6999 148.6C62.6999 148.7 62.6999 148.7 62.6999 148.8C62.7999 149.2 62.8999 149.6 63.0999 150.1C64.0999 154.8 60.0999 159.1 56.6999 161.8C52.3999 165.2 47.4999 168.1 45.4999 173.5C44.6999 175.7 44.5999 178 45.2999 180.2C41.9999 181.3 39.3999 184 38.1999 187.4C36.7999 191.4 37.8999 195.8 40.4999 199.1C41.9999 200.9 43.6999 202.2 45.8999 203.1C46.0999 204.4 46.2999 205.8 46.4999 207.1C47.3999 212.5 48.5999 217.8 50.0999 223.1C51.5999 228.3 53.2999 233.5 55.5999 238.4C55.5999 238.5 55.6999 238.6 55.6999 238.7C56.1999 239.7 57.7999 238.9 57.4999 237.9C57.4999 237.8 57.3999 237.6 57.3999 237.5C55.8999 233.2 54.3999 229 53.0999 224.7C51.7999 220.2 50.6999 215.7 49.7999 211.1C48.8999 206.5 48.2999 201.9 47.7999 197.3C47.6999 196.2 47.5999 195.2 47.4999 194.1C47.3999 193.2 47.3999 192.1 47.8999 191.2C48.7999 189.7 51.1999 189.7 52.6999 189.5C62.1999 188.4 72.0999 188.3 81.5999 189.9C83.4999 190.2 85.3999 190.7 87.0999 191.6C88.8999 192.6 90.0999 194.1 91.0999 195.9C92.0999 197.7 92.5999 199.7 93.2999 201.7C94.0999 204 94.7999 206.3 95.5999 208.6C98.6999 218.4 101.6 228.3 104.1 238.3C104.3 238.9 104.4 239.5 104.6 240.1C104.7 240.5 104.9 240.7 105.2 240.8C105.7 241.1 106.5 240.8 106.9 240.3C107.1 240 107.2 239.7 107.1 239.3C107 238.8 106.9 238.4 106.7 237.9C105.7 233.9 104.6 229.9 103.5 225.8C104.1 225.9 104.6 225.9 105.2 226C106.2 226.1 107.2 226.2 108.1 226.3C109.1 226.4 110.2 226.5 111.2 226.6C112.1 226.7 113 226.9 113.9 226.6C114 226.6 114.1 226.6 114.1 226.5C115 226.2 115.6 225.5 116.2 224.7C116.6 224.1 117 223.4 117.4 222.8C117.9 222 118.5 221.2 119 220.3C119.4 219.7 119.8 219.2 120.1 218.6C122.5 221.2 124.9 223.8 127.5 226.3C129.1 227.8 130.8 229.2 132.9 230C135.1 230.8 137.4 230.9 139.6 230.3C144.2 229.1 148 225.6 151.5 222.7C153.7 220.9 155.8 219 157.8 217.1C158.8 216.1 159.9 215.1 160.9 214.1C161.4 213.6 161.8 213.2 162.3 212.7C166.7 212.7 171.1 212.8 175.5 212.8C179.2 212.8 183 212.9 186.7 212.9C186.9 213 187.1 212.9 187.3 212.9C187.7 212.8 188 212.4 188 212C189.3 209.6 190.6 207.3 191.8 204.8C192.4 203.5 193 202.3 193.6 201C194.2 199.7 194.6 198.3 195.2 196.9C195.2 196.9 195.2 196.9 195.2 196.8C195.1 196.2 194.7 195.1 193.8 195.2ZM155 195.5C155.1 195.4 155.2 195.3 155.3 195.2C155.8 194.6 156.2 194.1 156.7 193.5C156.8 193.4 156.9 193.3 157 193.2C157.6 192.5 158.2 191.9 158.8 191.3C159.6 190.5 160.4 189.8 161.3 189C162.6 187.9 164.3 186.4 166.1 186.6C167.4 186.7 168.4 187.7 169.3 188.6C168.4 188.7 167.6 188.9 166.7 189.2C166.7 189.1 166.6 189 166.5 188.9C166.4 188.8 166.4 188.8 166.3 188.7C166.2 188.6 166.2 188.6 166.1 188.6C166 188.6 165.9 188.5 165.9 188.5C165.8 188.5 165.7 188.5 165.5 188.5C165.4 188.5 165.3 188.6 165.2 188.6C165.2 188.6 165.2 188.6 165.1 188.6L165 188.7C164.9 188.8 164.7 188.9 164.6 189C164.5 189.1 164.3 189.3 164.2 189.4C164.1 189.5 163.9 189.6 163.8 189.8C163.7 189.9 163.6 190.1 163.4 190.2C163.3 190.3 163.2 190.5 163.2 190.6C162.9 190.8 162.7 191 162.4 191.2C162.1 191.4 161.8 191.7 161.5 191.9C160.9 192.4 161.3 193.2 161.9 193.4C162.1 193.4 162.3 193.4 162.4 193.4C162.5 193.4 162.6 193.3 162.6 193.3C163.8 192.4 165 191.7 166.3 191.3C167.6 190.8 169 190.5 170.4 190.5C170.2 190.6 170 190.7 169.8 190.7C169.4 190.9 168.9 191.1 168.5 191.3C167.4 191.9 166.4 192.6 165.6 193.5C165.4 193.7 165.3 193.9 165.1 194.1C164.9 194.3 164.8 194.6 164.9 194.8C164.9 195 165 195.2 165.1 195.3C165.4 195.6 166 195.8 166.3 195.5C166.6 195.3 166.9 195 167.2 194.8C167.8 194.4 168.3 194 168.9 193.6C169.3 193.3 169.8 193 170.3 192.8C171.3 192.3 172.4 192 173.5 191.8C172.8 192.4 172.1 193 171.4 193.7C171 194.1 170.6 194.5 170.1 194.8C169.5 195.3 168.8 195.8 168.1 196.2C167.8 196.4 167.7 196.8 167.7 197.1C167.8 197.6 168.3 198 168.8 197.7C169.3 197.5 169.7 197.3 170.1 197C170.9 196.5 171.7 195.9 172.5 195.3C172.7 195.1 172.9 194.9 173.1 194.7C173.5 194.3 173.9 194 174.3 193.7C174.8 193.3 175.3 192.9 175.9 192.6C177 192 178.4 191.7 179.6 192.3C180.3 192.7 180.7 193.3 180.8 193.9C180.8 194.2 180.8 194.4 180.8 194.7V194.8C180.8 194.9 180.7 195 180.7 195C180.6 195.4 180.6 195.8 180.5 196.2C180.5 196.3 180.4 196.4 180.4 196.5C180.3 196.7 180.3 196.7 180.3 196.8C180.3 196.9 180.2 197 180.2 197.1C180.1 197.3 180 197.5 179.9 197.6C179.8 197.7 179.8 197.8 179.7 197.9C179.4 198.3 179.2 198.6 178.9 198.8C178.7 198.9 178.7 199 178.6 199.1C178.4 199.2 178.3 199.3 178.1 199.4L177.9 199.5C177.8 199.5 177.7 199.6 177.6 199.6C177.5 199.6 177.5 199.6 177.5 199.6C177.4 199.6 177.4 199.6 177.3 199.6C177.2 199.6 177.1 199.6 177.1 199.6H177L176.9 199.5C177.5 198.7 178.1 197.8 178.6 196.9C178.7 196.8 178.8 196.6 178.9 196.5C179.5 195.5 177.9 194.3 177.2 195.3C176.8 195.9 176.4 196.4 176 197C175.7 197.4 175.5 197.7 175.2 198.1C175 198.2 174.8 198.4 174.8 198.7C173.6 200.2 172.4 201.7 170.9 203C168.9 204.7 166.6 205.7 164.1 206.1C163.7 203.9 162.6 201.8 161 200.2C159.6 198.8 157.7 197.6 155.6 197.1C154.9 196.9 154.2 196.8 153.4 196.8C154.2 196.7 154.6 196.1 155 195.5ZM150.6 197.5C148.8 198.5 147 199.5 145.2 200.5C144.2 201 143.2 201.6 142.2 202.1C141.4 202.5 140.5 203 139.7 203.5C138.7 201.5 137.7 199.4 136.6 197.4C141.3 197.5 145.9 197.5 150.6 197.5ZM114.4 139.1C114.1 137.9 113.7 136.7 113.1 135.7C114 134.3 114.7 132.6 114.1 131C114.2 130.5 114.3 130 114.4 129.5C114.5 128.9 114.6 128.3 114.8 127.7C115.1 126.5 115.5 125.4 115.9 124.2C116.1 123.6 116.5 122.1 117.3 122.2C117.5 122.2 117.7 122.4 117.8 122.7C118 123.2 118 123.9 118 124.4C118 124.7 118.1 124.9 118.3 125.1V125.2C118 126.5 117.7 127.8 117.5 129.1C117.2 130.6 116.9 132 116.6 133.5C116.3 135 115.9 136.5 116 138C116.1 138.8 117.1 139 117.5 138.3C118.1 137 118.3 135.6 118.6 134.2C118.9 132.9 119.1 131.6 119.4 130.3C119.7 128.9 119.9 127.5 120.2 126.1C120.3 125.6 120.4 124.1 121.1 124C121.2 124 121.4 124 121.5 124.1C122.1 124.5 122.2 125.9 122.2 126.4C122.2 127.7 121.7 129.1 121.4 130.4C121.4 130.5 121.4 130.5 121.3 130.6C120.6 133.3 119.9 135.9 119.2 138.6C119.1 139 119.2 139.4 119.5 139.6C119.5 140.4 120.6 140.9 121 140C121.6 138.8 122 137.5 122.5 136.3C122.6 136 122.8 135.6 122.9 135.3C123.3 134.4 123.8 133.5 124.3 132.7C124.7 132.1 125.1 131.4 125.5 130.8C125.5 130.7 125.6 130.7 125.6 130.6C125.9 130.2 126.1 129.9 126.4 129.5C126.7 129.1 127.2 128.5 127.7 128.6C127.8 128.6 127.8 128.6 127.9 128.7C128.2 128.8 128.1 129.2 128.1 129.5C128 129.8 128 130.1 127.9 130.4C127.6 131.4 127 132.4 126.7 133.3C126.3 134.2 125.9 135.1 125.6 136C125.5 136.1 125.5 136.3 125.4 136.4C125.2 136.8 125.1 137.2 124.9 137.6C124.4 138.8 123.9 139.9 123.5 141.1C123.3 141.7 123 142.3 122.8 142.9C122.4 143.9 121.9 145 121.5 146C121.3 146.5 121.1 147 120.9 147.5C119.8 150.2 118.7 153 117.5 155.7C117.4 155.8 117.4 155.9 117.4 156.1C117.3 156.2 117.3 156.3 117.2 156.5C116.9 158.1 116.6 159.8 116.4 161.4C115.4 161.5 114.4 161.7 113.4 161.7C112.3 161.7 111.2 161.6 110.2 161.4C109.1 161.2 108.1 160.9 107.1 160.5C106.2 160.1 105.3 159.6 104.4 159.3C104.4 159 104.4 158.7 104.4 158.4C105.9 157.8 107.4 157 108.7 156C112.7 152.9 115 148.2 115.1 143.1C114.9 141.9 114.7 140.5 114.4 139.1ZM115.9 163.8C115.6 165.9 115.3 168 115.1 170.2C113.8 167.5 111.5 165.2 108.8 164.1C107.2 163.4 105.6 163.3 104 163.1C104 162.6 104.1 162 104.1 161.5C105.7 162.7 107.8 163.3 109.6 163.7C110.8 163.9 112.1 164.1 113.3 164C114.1 164 115 164 115.9 163.8ZM112.6 142.5C112.4 142.5 112.2 142.5 112.1 142.4C111.7 142.3 111.2 142.3 110.8 142.2C110.7 142.2 110.7 142.2 110.6 142.1C110.5 142.1 110.4 142 110.4 142C110.3 142 110.2 141.9 110.1 141.9C110.1 141.9 110 141.9 110 141.8C109.9 141.7 109.8 141.7 109.8 141.6C109.7 141.5 109.7 141.5 109.6 141.4C109.5 141.3 109.5 141.2 109.4 141.1V141C109.4 140.9 109.3 140.8 109.3 140.8C109.3 140.8 109.3 140.8 109.3 140.7C109.3 140.7 109.3 140.7 109.3 140.6C109.3 140.5 109.3 140.4 109.3 140.4C109.3 140.4 109.3 140.4 109.3 140.3C109.3 140.2 109.3 140.2 109.3 140.2C109.3 140.1 109.4 140 109.4 140C109.4 140 109.4 139.9 109.5 139.9C109.5 139.9 109.6 139.9 109.6 139.8C109.7 139.8 109.7 139.7 109.7 139.7C109.7 139.7 109.8 139.7 109.8 139.6C109.9 139.6 110 139.5 110 139.5C110.1 139.5 110.2 139.4 110.3 139.4H110.4C110.6 139.4 110.8 139.3 111 139.3C111.2 139.3 111.4 139.3 111.6 139.3C111.7 139.3 111.8 139.3 111.9 139.3C111.9 139.3 112 139.3 112.1 139.3C112.2 139.3 112.3 139.3 112.4 139.3C112.6 140.2 112.7 141.1 112.8 142C112.6 142.4 112.6 142.4 112.6 142.5ZM110.2 128.3C110.2 127.9 110.2 127.6 110.3 127.2C110.3 126.5 110.4 125.9 110.5 125.3C110.6 124.6 110.8 123.9 111 123.2C111.1 122.9 111.1 122.8 111.3 122.5C111.4 122.2 111.5 122.1 111.7 121.9C111.7 121.9 111.7 121.8 111.8 121.8C111.8 121.8 111.8 121.8 111.9 121.8H112C112.1 122 112.2 122.1 112.2 122.4C112.2 122.8 112.2 123.2 112.2 123.6C112.2 125.2 112.3 126.7 112.3 128.3C112.3 128.5 112.4 128.6 112.4 128.8C112.4 129 112.3 129.2 112.3 129.4C111.6 129.1 110.9 129 110.2 128.9C110.1 128.6 110.1 128.5 110.2 128.3ZM95.7999 153.5C95.7999 153.4 95.7999 153.3 95.7999 153.2C95.9999 153.1 96.2999 153 96.4999 152.8C97.4999 152.2 98.5999 151.3 99.0999 150.3C99.5999 149.3 98.3999 148 97.3999 148.8C96.7999 149.3 96.2999 149.9 95.6999 150.4C95.0999 150.8 94.4999 151.1 93.7999 151.4C92.4999 151.8 91.0999 151.7 89.8999 151.1C88.7999 150.5 87.8999 149.6 87.6999 148.3C87.4999 147.1 87.7999 145.7 88.6999 145C89.5999 144.2 91.0999 144 92.2999 144.5C92.6999 144.7 93.2999 144.6 93.4999 144.2C93.6999 143.9 93.6999 143.6 93.5999 143.3C93.6999 143.2 93.6999 143.1 93.6999 143C95.0999 139.1 95.3999 134.6 95.1999 130.5C95.0999 128.4 94.7999 126.4 94.2999 124.4C93.8999 122.8 93.3999 121.2 92.6999 119.7C92.7999 119.7 92.9999 119.8 93.0999 119.8C98.1999 121.2 102.9 124.3 106 128.6V128.7C106 128.8 106 129 106.1 129.1C106.7 129.9 107.7 130.3 108.7 130.6C109.1 130.7 109.6 130.8 110 130.8C110.2 130.8 110.4 130.9 110.6 130.9C110.7 130.9 110.8 131 110.9 131C110.9 131 111 131 111.1 131.1C111.2 131.1 111.3 131.2 111.3 131.2C111.4 131.2 111.5 131.3 111.6 131.3C111.7 131.4 111.8 131.5 111.9 131.5L112 131.6C112.1 131.7 112.1 131.7 112.1 131.8L112.2 132C112.2 132.1 112.2 132.2 112.2 132.4C112.2 132.6 112.2 132.6 112.2 132.7C112.2 132.8 112.2 132.9 112.1 133C112 133.2 112 133.4 111.8 133.7C111.7 134 111.6 134.2 111.4 134.4C111.3 134.6 111.1 135 111 135.1C110.7 135.5 110.6 136.1 111.1 136.5L111.2 136.6C111.3 137 111.4 137.3 111.6 137.7C110.2 137.6 108.6 137.7 107.7 138.8C106.4 140.4 107.2 142.6 108.7 143.7C109.5 144.3 110.5 144.5 111.5 144.7C111.7 144.7 112 144.8 112.2 144.8C112.3 144.8 112.3 144.8 112.4 144.8C112.2 146.1 111.9 147.5 111.4 148.7C109.7 152.6 106.3 155.5 102.2 156.7C99.8999 157.3 97.4999 157.5 95.1999 157C95.1999 155.7 95.5999 154.7 95.7999 153.5ZM96.6999 160.5C96.3999 160.2 96.1999 159.8 95.9999 159.5C97.9999 159.8 100.1 159.6 102 159.2C101.9 159.8 101.9 160.4 101.9 161C101.9 161.7 101.8 162.3 101.8 163C99.8999 162.7 97.9999 162.1 96.6999 160.5ZM156.5 214.4C154.8 216 153 217.6 151.2 219.2C149.4 220.8 147.5 222.3 145.6 223.7C143.9 225 142.1 226.3 140 227.2C138.1 228 136 228.4 133.9 227.9C131.9 227.4 130.3 226.1 128.8 224.7C125.3 221.5 122.2 218 119 214.5C115.3 210.5 111.8 206.3 108.3 202.2C107.6 201.3 106.1 202.6 106.8 203.5C109.9 207.6 113.2 211.4 116.6 215.2C117 215.7 117.5 216.2 117.9 216.7C116.9 217.9 116.1 219.4 115.3 220.7C114.8 221.4 114.4 222.2 113.9 222.9C113.5 223.5 113.2 224.2 112.4 224.2C111.6 224.2 110.7 224 109.9 224C109 223.9 108.1 223.8 107.3 223.7C105.7 223.5 103.9 223.2 102.3 223.2C101 218.6 99.5999 214.1 98.0999 209.5C97.9999 209.1 97.7999 208.7 97.6999 208.3C97.7999 208.3 97.8999 208.2 97.9999 208.1C102.4 205 104.8 199.9 105.5 194.7C105.6 193.8 105.7 192.9 105.7 191.9C105.7 191.2 105.7 190.5 105.6 189.8C105.3 185.5 104 181.3 102.2 177.4C101.3 175.3 100.2 173.3 99.0999 171.3C100.4 171.3 101.6 171.4 102.9 171.5C104.8 171.8 106.7 172.2 108.6 172.9C112.3 174.2 115.8 176.1 118.8 178.5C123.1 181.8 126.6 185.9 129.6 190.3C130.1 191 130.6 191.8 131.1 192.6C131.7 193.5 132.2 194.5 132.8 195.4C133.2 196 133.5 196.6 133.8 197.3C134 197.6 134.1 197.8 134.2 198.1C136.3 202 138.1 206 140 210C140.2 210.4 140.3 210.7 140.5 211.1C140.8 211.7 141.4 212.1 142.1 211.9C142.7 211.7 143.2 210.9 142.9 210.3C142.8 210.2 142.8 210.1 142.7 209.9C142 208.4 141.3 206.8 140.6 205.3C141.5 204.9 142.3 204.4 143.1 204C144.1 203.4 145.2 202.9 146.2 202.3C148.2 201.2 150.2 200.1 152.2 199C152.3 199 152.3 199.1 152.4 199.1C155.1 199.4 157.6 200.2 159.6 202.2C160.9 203.5 161.7 205.1 162 206.9C162.1 207.3 162.1 207.8 162.2 208.2C162.2 208.5 162.2 208.8 162.2 209.2C162 209.2 161.8 209.3 161.7 209.4C161.4 209.6 161.1 209.9 160.8 210.2C160.2 210.7 159.7 211.3 159.1 211.9C158.9 212.1 158.6 212.4 158.4 212.6C157.8 213.2 157.2 213.8 156.5 214.4ZM191.2 199.9C190.6 201.2 190 202.4 189.4 203.7C188.3 205.9 187.1 208.1 185.9 210.3L185.8 210.4C178.6 210.3 171.5 210.3 164.3 210.2C164.5 210 164.6 209.7 164.6 209.4C164.6 209.2 164.6 208.9 164.6 208.7C167.4 208.6 170.2 207.2 172.2 205.5C173.6 204.4 174.8 203.1 175.9 201.7C176.1 201.9 176.3 202 176.6 202.1C177.8 202.6 179.2 202.2 180.2 201.4C181.1 200.8 181.8 199.9 182.3 198.9C182.5 198.4 182.7 197.9 182.8 197.4C186.1 197.3 189.4 197.4 192.6 197.4C192.1 198.1 191.7 199 191.2 199.9Z" fill="#242424"/>
<path d="M168.5 147.2C168.2 145.8 167.4 144.5 166.2 143.8C165 143.1 163.5 142.9 162.1 142.9C158.6 142.8 155 143 151.5 143.1C147.4 143.2 143.3 143.1 139.2 143.4C137 143.5 134.6 144.2 133 145.8C130.6 148.2 130 153.9 131.6 156.9C132.2 158.1 133.2 158.7 134.3 159.1C133.9 159.9 133.6 160.7 133.2 161.5C132.9 162.2 133.5 163.2 134.3 162.9C135.9 162.3 137.5 161.6 139 160.7C139.6 160.4 140.1 160 140.6 159.5C144.1 159.6 147.6 159.6 151.1 159.7C152.9 159.7 154.7 159.8 156.5 159.8C158.2 159.8 159.9 159.9 161.5 159.8C164.4 159.6 167.1 158.4 168.2 155.5C168.7 154.2 168.8 152.8 168.8 151.5C168.8 150 168.8 148.5 168.5 147.2ZM166.3 153.1C166.2 154.1 165.9 155.2 165.1 156C164.3 156.8 163.3 157.2 162.2 157.3C160.9 157.5 159.7 157.4 158.4 157.4L153.6 157.3C150.4 157.2 147.2 157.2 144.1 157.1C143.7 157.1 143.3 157.1 142.9 157.1C141.9 157.1 141 157.1 140 157.1C139.9 157.2 139.8 157.3 139.7 157.4C139.1 157.9 138.5 158.3 137.9 158.8C137.6 159 137.3 159.2 136.9 159.4C136.6 159.6 136.2 159.8 135.9 160C136 159.8 136.1 159.6 136.2 159.4C136.5 158.7 136.9 157.9 137.2 157.2C136.5 157.2 135.8 157.2 135.2 157C134.9 156.9 134.6 156.8 134.4 156.7C133.3 156.2 132.9 154.9 132.9 153.7C132.9 149.4 134 146 139.6 145.8C142.7 145.7 145.8 145.7 148.9 145.6C152.1 145.5 155.2 145.5 158.4 145.4C159.8 145.4 161.3 145.3 162.7 145.3C163.7 145.3 164.9 145.5 165.6 146.4C166.3 147.3 166.3 148.5 166.4 149.6C166.4 150.7 166.5 151.9 166.3 153.1Z" fill="#FEBB08"/>
<path d="M209.599 132.3C209.599 134 209.499 135.7 208.599 137.2C207.299 139.4 204.799 140.2 202.299 140.6C202.299 140.9 202.299 141.2 202.299 141.5C202.299 142.7 202.399 144 202.699 145.1C202.899 146 201.999 146.5 201.299 146C200.699 145.6 200.099 145.2 199.599 144.6C199.099 144.1 198.599 143.5 198.199 142.9C197.799 142.2 197.399 141.5 196.999 140.8C188.699 141.1 180.499 141.3 172.199 141.6C170.099 141.7 167.899 141.8 165.899 141.2C164.299 140.7 163.099 139.5 162.299 138.2C160.399 134.8 161.099 130.2 162.899 126.9C164.799 123.3 169.399 122.8 173.299 122.8C178.399 122.7 183.499 122.6 188.599 122.5C192.599 122.4 196.799 122.1 200.799 122.5C204.199 122.8 207.499 124.2 208.799 127.2C209.599 128.7 209.599 130.6 209.599 132.3Z" fill="#FEBB08"/>
</svg>
